Title: Ustad Nusrat Fateh Ali Khan Sahib  [INTERVIEW] [SIPPY GREWAL]
Artist: Ustad Nusrat Fateh Ali Khan Sahib
Format : MPEG-PS 
File size : 1.66 GiB 
Duration : 40mn 59s 
Overall bit rate : 5 791 Kbps 

Video 
ID : 224 (0xE0) 
Format : MPEG Video 
Format version : Version 2 
Format profile : Main@Main 
Format settings, BVOP : Yes 
Format settings, Matrix : Default 
Format settings, GOP : M=3, N=12 
Duration : 40mn 59s 
Bit rate mode : Variable 
Bit rate : 5 420 Kbps 
Nominal bit rate : 8 000 Kbps 
Width : 720 pixels 
Height : 576 pixels 
Display aspect ratio : 4:3 
Frame rate : 25.000 fps 
Standard : PAL 
Color space : YUV 
Chroma subsampling : 4:2:0 
Bit depth : 8 bits 
Scan type : Interlaced 
Scan order : Bottom Field First 
Bits/(Pixel*Frame) : 0.523 
Stream size : 1.55 GiB (94%) 

Audio 
ID : 128 (0x80) 
Format : AC-3 
Format/Info : Audio Coding 3 
Mode extension : CM (complete main) 
Duration : 40mn 59s 
Bit rate mode : Constant 
Bit rate : 256 Kbps 
Channel(s) : 2 channels 
Channel positions : Front: L R 
Sampling rate : 48.0 KHz 
Stream size : 75.1 MiB (4%) 